<?xml version="1.0" encoding="utf-8"?>
<!-- Generator: Adobe Illustrator 19.0.0, SVG Export Plug-In . SVG Version: 6.00 Build 0)  -->
<svg version="1.1" id="Layer_1" xmlns="http://www.w3.org/2000/svg" xmlns:xlink="http://www.w3.org/1999/xlink" x="0px" y="0px"
	 viewBox="0 0 192.1 125.6" style="enable-background:new 0 0 192.1 125.6;" xml:space="preserve">
<g id="XMLID_1_">
	<g id="XMLID_43_">
		<path id="XMLID_50_" d="M4.7,129.5c17.2-36,34.5-71.9,51.7-107.9c2.4-5.1,4.9-10.1,7.3-15.2c3.3-6.9-7-13-10.4-6.1
			c-17.2,36-34.5,71.9-51.7,107.9c-2.4,5.1-4.9,10.1-7.3,15.2C-9,130.4,1.4,136.5,4.7,129.5L4.7,129.5z"/>
	</g>
</g>
<g id="XMLID_3_">
	<g id="XMLID_44_">
		<path id="XMLID_59_" d="M53.4,4.3c6.6,20.7,13.1,41.4,19.7,62.2c2.3,7.3,13.9,4.2,11.6-3.2C78.1,42.6,71.5,21.9,65,1.2
			C62.6-6.2,51-3,53.4,4.3L53.4,4.3z"/>
	</g>
</g>
<g id="XMLID_4_">
	<g id="XMLID_42_">
		<path id="XMLID_58_" d="M79,72.6c26.4,0,52.9,0,79.3,0c7.7,0,7.7-12,0-12c-26.4,0-52.9,0-79.3,0C71.3,60.6,71.3,72.6,79,72.6
			L79,72.6z"/>
	</g>
</g>
<g id="XMLID_5_">
	<g id="XMLID_60_">
		<path id="XMLID_64_" d="M153.2,68.6c11.3,20.8,22.5,41.7,33.8,62.5c3.7,6.8,14,0.7,10.4-6.1c-11.3-20.8-22.5-41.7-33.8-62.5
			C159.8,55.8,149.5,61.8,153.2,68.6L153.2,68.6z"/>
	</g>
</g>
</svg>
