<svg id="Capa_1" enable-background="new 0 0 512 512" height="512" viewBox="0 0 512 512" width="512" xmlns="http://www.w3.org/2000/svg"><g><path d="m429.695 149.474 25.139-25.139c2.981-2.981 4.624-6.945 4.624-11.161s-1.643-8.18-4.623-11.161l-11.715-11.715c-6.154-6.153-16.167-6.153-22.321 0l-25.14 25.139c-33.251-26.839-73.104-43.347-115.593-47.88v-19.424h17.634c8.547 0 15.5-6.953 15.5-15.5v-9.133c0-12.958-10.542-23.5-23.5-23.5h-67.4c-12.958 0-23.5 10.542-23.5 23.5v9.133c0 8.547 6.953 15.5 15.5 15.5h17.634v19.425c-50.429 5.381-97.156 27.617-133.523 63.985-42.094 42.094-65.276 98.061-65.276 157.59 0 53.78 19.419 105.714 54.68 146.234 2.72 3.125 7.457 3.454 10.582.734 3.124-2.719 3.453-7.457.734-10.581-32.886-37.79-50.996-86.227-50.996-136.388 0-114.618 93.248-207.867 207.866-207.867s207.866 93.249 207.866 207.867-93.249 207.868-207.867 207.868c-50.124 0-98.534-18.088-136.313-50.931-3.127-2.718-7.862-2.386-10.581.739-2.718 3.126-2.387 7.863.739 10.581 40.51 35.216 92.415 54.611 146.155 54.611 59.529 0 115.496-23.182 157.59-65.276s65.276-98.061 65.276-157.59c0-51.433-17.317-100.196-49.171-139.66zm1.71-48.568c.308-.307.805-.305 1.108-.001l11.715 11.715c.152.152.23.338.23.554 0 .215-.077.401-.23.554l-24.365 24.365c-2.046-2.215-4.128-4.405-6.272-6.549-2.145-2.145-4.334-4.227-6.549-6.273zm-217.605-68.273v-9.133c0-4.687 3.813-8.5 8.5-8.5h67.4c4.686 0 8.5 3.813 8.5 8.5v9.133c0 .276-.225.5-.5.5h-83.4c-.276 0-.5-.224-.5-.5zm33.134 33.829v-18.329h18.133v18.329c-3.013-.12-6.034-.196-9.066-.196-3.034.001-6.054.076-9.067.196z"/><path d="m378.981 144.649c-34.25-29.179-77.924-45.249-122.981-45.249-104.619 0-189.733 85.114-189.733 189.733s85.114 189.734 189.733 189.734 189.733-85.114 189.733-189.733c0-45.156-16.133-88.906-45.428-123.191-2.689-3.148-7.423-3.521-10.574-.83-3.149 2.691-3.521 7.425-.83 10.574 26.976 31.571 41.832 71.86 41.832 113.447 0 96.348-78.385 174.733-174.733 174.733s-174.733-78.386-174.733-174.734 78.384-174.733 174.733-174.733c41.494 0 81.715 14.798 113.253 41.667 3.153 2.687 7.887 2.308 10.573-.845 2.687-3.153 2.308-7.887-.845-10.573z"/><path d="m263.5 156.6v-16.567c0-4.142-3.357-7.5-7.5-7.5s-7.5 3.358-7.5 7.5v16.567c0 4.142 3.357 7.5 7.5 7.5s7.5-3.358 7.5-7.5z"/><path d="m248.5 421.667v16.567c0 4.142 3.357 7.5 7.5 7.5s7.5-3.358 7.5-7.5v-16.567c0-4.142-3.357-7.5-7.5-7.5s-7.5 3.357-7.5 7.5z"/><path d="m388.533 296.633h16.567c4.143 0 7.5-3.358 7.5-7.5s-3.357-7.5-7.5-7.5h-16.566c-4.143 0-7.5 3.358-7.5 7.5s3.357 7.5 7.499 7.5z"/><path d="m106.9 281.633c-4.143 0-7.5 3.358-7.5 7.5s3.357 7.5 7.5 7.5h16.566c4.143 0 7.5-3.358 7.5-7.5s-3.357-7.5-7.5-7.5z"/><path d="m167.588 190.115-11.715-11.715c-2.928-2.93-7.677-2.929-10.606 0s-2.929 7.678.001 10.606l11.715 11.714c1.464 1.465 3.384 2.197 5.303 2.197s3.839-.732 5.304-2.197c2.928-2.928 2.928-7.676-.002-10.605z"/><path d="m355.018 377.545c-2.928-2.93-7.677-2.929-10.607 0-2.929 2.929-2.929 7.678.001 10.606l11.715 11.714c1.464 1.465 3.384 2.197 5.303 2.197s3.839-.732 5.304-2.197c2.929-2.929 2.929-7.678-.001-10.606z"/><path d="m156.982 377.545-11.715 11.714c-2.93 2.929-2.93 7.677-.001 10.606 1.465 1.465 3.384 2.197 5.304 2.197 1.919 0 3.839-.732 5.303-2.197l11.715-11.714c2.93-2.929 2.93-7.677.001-10.606-2.929-2.928-7.678-2.929-10.607 0z"/><path d="m366.733 178.4c-2.929-2.929-7.678-2.93-10.606 0l-11.715 11.714c-2.93 2.929-2.93 7.677-.001 10.607 1.465 1.465 3.384 2.197 5.304 2.197 1.919 0 3.839-.732 5.303-2.197l11.715-11.714c2.929-2.929 2.929-7.677 0-10.607z"/><path d="m274.125 317.865c1.465 1.465 3.384 2.197 5.304 2.197 1.919 0 3.839-.732 5.303-2.197 2.93-2.929 2.93-7.677.001-10.606l-7.268-7.269c4.557-9.028 3.085-20.344-4.446-27.875-7.532-7.531-18.848-9.003-27.876-4.446l-54.125-54.126c-2.929-2.929-7.677-2.929-10.607 0-2.929 2.929-2.929 7.678 0 10.606l54.126 54.127c-4.557 9.027-3.085 20.343 4.445 27.874 4.692 4.692 10.855 7.038 17.019 7.038 3.729 0 7.453-.874 10.857-2.592zm-24.536-22.321c-1.713-1.712-2.656-3.989-2.656-6.411s.943-4.699 2.656-6.411c1.712-1.712 3.989-2.656 6.411-2.656s4.699.943 6.411 2.656c1.713 1.712 2.656 3.989 2.656 6.411s-.943 4.699-2.656 6.411c-1.712 1.712-3.989 2.656-6.411 2.656s-4.699-.943-6.411-2.656z"/></g></svg>