<svg height="384pt" viewBox="0 0 384 384" width="384pt" xmlns="http://www.w3.org/2000/svg"><path d="m336 0h-288c-26.472656 0-48 21.527344-48 48v288c0 26.472656 21.527344 48 48 48h288c26.472656 0 48-21.527344 48-48v-288c0-26.472656-21.527344-48-48-48zm16 336c0 8.824219-7.175781 16-16 16h-288c-8.824219 0-16-7.175781-16-16v-288c0-8.824219 7.175781-16 16-16h288c8.824219 0 16 7.175781 16 16zm0 0"/><path d="m144 144c8.832031 0 16-7.167969 16-16s-7.167969-16-16-16h-48c-17.648438 0-32 14.351562-32 32v112c0 8.832031 7.167969 16 16 16s16-7.167969 16-16v-48h48c8.832031 0 16-7.167969 16-16s-7.167969-16-16-16h-48v-32zm0 0"/><path d="m304.257812 113.480469c-9.554687-3.496094-19.984374-.746094-26.570312 7.023437-.664062.792969-1.253906 1.640625-1.757812 2.542969l-19.929688 35.707031-19.929688-35.707031c-.503906-.902344-1.09375-1.75-1.757812-2.542969-6.585938-7.769531-17-10.511718-26.570312-7.023437-9.566407 3.503906-15.742188 12.351562-15.742188 22.535156v119.984375c0 8.832031 7.167969 16 16 16s16-7.167969 16-16v-88.921875l6.71875 12.035156c.722656 1.285157 1.609375 2.472657 2.65625 3.511719 12.472656 12.480469 32.785156 12.480469 45.25 0 1.046875-1.039062 1.933594-2.226562 2.65625-3.511719l6.71875-12.035156v88.921875c0 8.832031 7.167969 16 16 16s16-7.167969 16-16v-119.984375c0-10.183594-6.175781-19.03125-15.742188-22.535156zm0 0"/></svg>