<?xml version="1.0" standalone="no"?>
<!DOCTYPE svg PUBLIC "-//W3C//DTD SVG 20010904//EN"
 "http://www.w3.org/TR/2001/REC-SVG-20010904/DTD/svg10.dtd">
<svg version="1.0" xmlns="http://www.w3.org/2000/svg"
 width="1084.000000pt" height="1084.000000pt" viewBox="0 0 1084.000000 1084.000000"
 preserveAspectRatio="xMidYMid meet">
<metadata>
Created by potrace 1.11, written by Peter Selinger 2001-2013
</metadata>
<g transform="translate(0.000000,1084.000000) scale(0.100000,-0.100000)"
fill="#000000" stroke="none">
<path d="M5367 8724 c-1 -1 -58 -5 -127 -9 -69 -3 -138 -8 -155 -9 -16 -2 -58
-7 -92 -10 -34 -4 -72 -9 -85 -11 -13 -3 -45 -7 -73 -10 -27 -3 -57 -8 -65
-10 -8 -2 -31 -7 -50 -10 -228 -35 -665 -164 -865 -256 -27 -12 -52 -23 -55
-24 -53 -16 -297 -140 -413 -209 -43 -25 -82 -46 -87 -46 -5 0 -10 -3 -12 -8
-1 -4 -28 -23 -58 -42 -30 -19 -59 -38 -65 -42 -5 -4 -57 -42 -115 -84 -58
-43 -138 -104 -179 -138 -91 -75 -363 -343 -416 -411 -22 -27 -43 -52 -46 -55
-34 -30 -259 -348 -282 -400 -9 -20 -30 -54 -38 -60 -10 -9 -156 -312 -187
-390 -64 -159 -137 -406 -162 -545 -5 -33 -12 -69 -14 -80 -2 -11 -7 -45 -11
-75 -4 -30 -9 -64 -11 -74 -22 -119 -21 -523 1 -682 4 -22 8 -54 9 -70 3 -32
12 -85 26 -154 6 -25 12 -56 14 -70 12 -62 72 -282 86 -315 5 -11 22 -58 40
-105 50 -137 143 -335 218 -465 45 -79 202 -315 222 -335 3 -3 17 -21 31 -40
15 -19 35 -45 45 -57 11 -11 35 -41 54 -65 43 -54 319 -330 380 -380 25 -21
55 -45 67 -55 12 -10 30 -25 40 -33 10 -9 45 -36 78 -60 33 -25 62 -48 63 -52
2 -5 10 -8 17 -8 7 0 15 -4 17 -9 7 -18 347 -227 426 -262 17 -7 32 -17 32
-21 0 -5 6 -8 13 -8 7 0 48 -18 91 -40 43 -21 99 -47 124 -56 26 -10 52 -21
57 -24 16 -12 240 -95 345 -128 129 -41 384 -107 455 -117 17 -2 39 -6 50 -8
11 -3 40 -8 65 -12 25 -4 52 -9 60 -10 8 -1 40 -6 70 -10 30 -4 71 -9 90 -12
39 -6 70 -9 220 -19 164 -12 640 -7 640 6 0 3 17 6 38 6 47 2 151 12 177 18
12 2 48 8 80 12 33 4 62 9 65 9 3 1 28 5 55 10 28 5 52 10 55 10 3 1 23 5 45
9 22 4 47 10 55 13 8 3 24 6 35 7 11 1 25 4 30 7 6 4 28 10 50 14 22 5 42 9
45 10 3 1 25 7 50 14 64 18 94 27 195 62 50 17 95 32 100 33 18 5 162 61 210
81 17 8 48 21 70 31 123 53 439 221 490 261 6 4 61 42 123 83 61 41 112 78
112 82 0 4 5 8 11 8 6 0 26 12 44 28 18 15 49 41 70 57 134 107 259 224 375
350 96 103 164 184 174 206 5 10 13 19 17 19 4 0 17 15 28 33 18 29 33 49 71
94 5 7 10 14 10 16 0 1 28 46 63 99 76 118 86 134 160 278 60 116 155 342 178
422 16 53 15 50 22 68 6 15 37 124 53 185 4 17 8 32 9 35 1 3 5 25 9 50 5 25
10 54 12 65 16 78 30 172 40 260 7 65 13 497 7 508 -3 5 -7 30 -8 55 -2 26 -6
72 -10 102 -7 54 -9 64 -19 125 -3 17 -8 46 -11 65 -8 44 -63 270 -72 290 -3
8 -8 24 -10 35 -1 11 -7 29 -12 40 -5 11 -14 36 -21 55 -7 19 -16 44 -20 55
-5 11 -16 40 -25 65 -33 88 -150 329 -209 430 -35 60 -146 232 -155 240 -4 3
-20 25 -36 50 -17 25 -35 50 -41 55 -5 6 -28 33 -49 60 -21 28 -49 61 -61 75
-13 14 -42 47 -65 73 -86 97 -260 265 -344 332 -28 21 -52 42 -55 45 -3 3 -25
21 -50 40 -25 19 -46 38 -48 42 -2 5 -10 8 -17 8 -7 0 -15 4 -17 8 -3 8 -103
81 -146 107 -9 6 -44 28 -77 50 -33 21 -62 39 -65 40 -3 0 -24 13 -47 28 -24
15 -47 27 -52 27 -5 0 -11 3 -13 8 -1 4 -43 27 -93 52 -49 25 -91 48 -93 53
-2 4 -9 7 -15 7 -7 0 -49 18 -95 40 -46 22 -89 40 -95 40 -7 0 -17 4 -23 8 -8
8 -121 56 -134 57 -3 1 -31 11 -63 23 -71 27 -330 106 -382 117 -11 2 -82 18
-157 34 -76 17 -159 33 -185 37 -27 3 -57 8 -68 10 -11 3 -38 7 -60 9 -22 3
-60 8 -85 11 -58 7 -149 15 -225 19 -33 2 -60 4 -60 5 0 2 -326 6 -328 4z"/>
</g>
</svg>
