<?xml version="1.0" standalone="no"?>
<!DOCTYPE svg PUBLIC "-//W3C//DTD SVG 20010904//EN"
 "http://www.w3.org/TR/2001/REC-SVG-20010904/DTD/svg10.dtd">
<svg version="1.0" xmlns="http://www.w3.org/2000/svg"
 width="1084.000000pt" height="1084.000000pt" viewBox="0 0 1084.000000 1084.000000"
 preserveAspectRatio="xMidYMid meet">
<metadata>
Created by potrace 1.11, written by Peter Selinger 2001-2013
</metadata>
<g transform="translate(0.000000,1084.000000) scale(0.100000,-0.100000)"
fill="#000000" stroke="none">
<path d="M5017 9204 c-2 -2 -37 -6 -78 -9 -169 -11 -288 -21 -349 -30 -14 -2
-56 -6 -93 -10 -37 -3 -78 -8 -90 -11 -12 -2 -42 -6 -67 -9 -25 -3 -56 -8 -70
-10 -14 -2 -41 -7 -60 -10 -19 -3 -60 -10 -90 -15 -30 -5 -67 -11 -83 -14 -15
-3 -35 -7 -45 -10 -9 -3 -33 -7 -52 -10 -19 -3 -69 -13 -110 -22 -41 -9 -84
-18 -95 -19 -30 -5 -276 -70 -395 -105 -58 -17 -109 -32 -115 -33 -109 -31
-426 -145 -590 -214 -274 -115 -625 -296 -835 -431 -128 -82 -254 -166 -260
-172 -3 -3 -30 -24 -60 -45 -30 -22 -62 -45 -70 -52 -45 -35 -197 -160 -211
-173 -9 -8 -53 -49 -99 -90 -156 -142 -350 -352 -458 -500 -23 -30 -47 -62
-55 -70 -52 -57 -235 -363 -304 -510 -87 -183 -183 -451 -208 -580 -2 -8 -8
-33 -13 -55 -11 -42 -19 -86 -27 -145 -3 -19 -7 -45 -10 -58 -20 -83 -27 -510
-12 -647 46 -404 190 -835 389 -1158 26 -43 48 -80 48 -82 0 -12 203 -298 235
-331 5 -6 21 -25 35 -43 71 -92 310 -339 441 -456 299 -268 694 -532 1104
-737 148 -73 521 -238 540 -238 4 0 21 -6 38 -14 43 -19 299 -107 412 -141
161 -49 198 -58 462 -125 17 -4 34 -5 37 -2 3 3 6 1 6 -4 0 -5 10 -9 23 -10
12 -1 55 -8 94 -17 68 -16 92 -20 153 -31 169 -31 153 -28 245 -41 28 -3 61
-8 75 -11 14 -2 52 -7 85 -10 33 -3 63 -8 66 -10 4 -2 37 -6 75 -9 38 -3 85
-8 105 -10 20 -3 70 -7 110 -10 41 -3 106 -8 144 -12 87 -7 897 -8 982 0 129
12 185 17 246 22 60 5 102 10 177 20 19 3 54 7 78 10 67 8 125 16 155 21 59 9
94 15 147 24 99 17 115 20 140 25 14 3 39 8 55 11 241 44 587 137 895 241 121
41 430 161 445 173 6 4 21 11 35 15 70 22 373 173 550 274 30 18 63 35 73 38
9 3 17 9 17 14 0 5 4 9 10 9 14 0 243 147 368 237 59 42 165 124 237 182 133
109 441 405 508 489 20 26 49 61 65 79 132 151 298 402 402 608 60 120 79 160
125 270 17 39 93 264 100 295 2 8 13 56 25 105 26 105 26 105 35 170 4 28 9
61 11 75 15 103 19 185 18 390 -1 129 -4 251 -6 270 -3 19 -8 58 -12 85 -4 28
-9 66 -12 85 -3 19 -9 51 -14 70 -5 19 -11 46 -14 60 -14 68 -17 81 -25 102
-5 13 -8 25 -8 28 0 9 -64 214 -78 245 -7 17 -20 50 -30 75 -49 124 -234 479
-265 510 -3 3 -18 25 -34 50 -162 253 -443 567 -716 799 -70 59 -93 78 -185
150 -84 66 -352 251 -436 300 -220 131 -418 236 -614 326 -117 54 -415 175
-415 168 0 -3 -6 -1 -12 5 -33 26 -668 221 -777 238 -19 3 -45 10 -58 15 -13
5 -23 7 -23 4 0 -2 -15 1 -32 6 -18 5 -67 16 -108 24 -41 8 -84 17 -95 19 -72
14 -197 36 -235 41 -25 3 -52 8 -60 10 -8 2 -40 7 -70 10 -30 3 -62 8 -70 10
-8 2 -42 7 -75 10 -33 3 -73 8 -90 10 -16 2 -59 7 -95 10 -91 7 -175 15 -245
21 -70 7 -902 14 -908 8z m873 -108 c71 -5 98 -8 260 -21 36 -3 75 -8 88 -10
13 -2 53 -7 90 -10 37 -3 77 -8 89 -10 12 -3 41 -7 65 -10 88 -11 348 -57 483
-86 77 -16 151 -32 165 -34 14 -3 50 -12 80 -20 30 -9 63 -18 72 -20 136 -31
600 -177 683 -215 11 -5 65 -27 120 -48 215 -84 522 -232 735 -355 96 -55 418
-263 465 -301 11 -9 67 -53 125 -98 58 -45 114 -89 125 -99 11 -10 47 -42 80
-71 63 -55 274 -265 336 -334 222 -245 458 -612 574 -894 29 -70 83 -215 90
-240 2 -8 15 -55 29 -103 14 -49 27 -100 30 -115 2 -15 9 -48 15 -75 12 -49
18 -87 26 -147 2 -19 8 -60 12 -90 16 -114 8 -526 -12 -628 -2 -10 -6 -43 -10
-73 -4 -30 -9 -57 -11 -60 -2 -3 -6 -21 -9 -40 -35 -201 -139 -484 -266 -729
-58 -111 -246 -411 -268 -430 -4 -3 -22 -25 -41 -50 -138 -179 -349 -402 -516
-545 -131 -113 -136 -117 -214 -177 -41 -32 -81 -62 -88 -68 -51 -44 -356
-240 -497 -319 -60 -34 -117 -66 -125 -71 -103 -60 -441 -215 -600 -277 -63
-24 -124 -48 -135 -53 -86 -39 -526 -176 -656 -205 -9 -2 -33 -8 -55 -14 -98
-27 -418 -96 -494 -106 -19 -3 -44 -7 -55 -9 -11 -2 -56 -9 -100 -16 -44 -6
-91 -13 -105 -15 -47 -8 -95 -14 -140 -19 -25 -3 -66 -8 -92 -11 -25 -3 -72
-8 -105 -10 -32 -2 -58 -5 -58 -5 0 -2 -40 -5 -210 -16 -152 -10 -714 -11
-860 -1 -66 4 -149 10 -185 12 -36 2 -85 6 -110 9 -25 3 -70 8 -100 11 -90 9
-133 14 -180 21 -25 3 -56 7 -70 9 -26 3 -70 10 -160 25 -158 26 -332 60 -365
70 -16 6 -43 12 -60 15 -16 2 -49 9 -72 15 -24 5 -60 14 -80 19 -75 18 -229
60 -256 70 -15 6 -27 9 -27 7 0 -9 -424 139 -589 206 -544 219 -1016 495
-1415 827 -184 153 -381 348 -521 516 -105 126 -305 411 -305 435 0 5 -3 10
-7 10 -5 0 -13 10 -19 23 -6 12 -33 65 -61 117 -125 236 -236 549 -277 780
-33 191 -40 271 -40 475 -1 264 17 412 78 655 9 36 19 72 22 80 3 8 5 16 5 17
0 2 7 22 15 45 9 24 17 50 19 58 14 67 159 387 236 520 194 336 504 699 824
965 33 28 62 52 65 55 3 3 25 21 50 40 25 19 47 37 50 41 13 15 317 224 413
283 186 115 387 222 612 326 87 40 394 168 425 176 8 2 99 33 203 68 103 36
187 63 187 60 0 -2 14 2 30 11 17 9 30 13 30 11 0 -3 12 -1 28 5 15 6 34 12
42 14 8 2 60 15 115 30 91 23 250 61 300 71 11 2 34 7 50 11 17 3 37 7 45 8 8
1 67 12 130 23 63 12 133 24 155 27 22 4 47 8 55 10 8 3 40 7 70 10 30 3 65 7
77 9 12 3 50 7 85 11 35 3 74 8 88 10 75 12 182 20 375 30 77 4 141 9 143 10
6 5 680 -3 762 -9z"/>
<path d="M3414 7001 c-3 -3 -12 -6 -21 -7 -9 -2 -28 -6 -42 -10 -14 -4 -28 -8
-31 -8 -27 -6 -132 -70 -166 -102 -24 -22 -46 -38 -49 -36 -5 5 -9 -15 -6 -30
0 -5 -2 -7 -7 -5 -4 1 -17 -8 -29 -20 -13 -13 -20 -23 -16 -23 3 0 -3 -8 -14
-17 -11 -10 -23 -28 -27 -40 -4 -13 -12 -23 -18 -23 -5 0 -8 -7 -4 -15 3 -8 2
-15 -2 -15 -13 0 -44 -60 -38 -75 3 -8 0 -14 -7 -12 -7 1 -12 -5 -13 -13 0 -8
-8 -32 -17 -54 -9 -21 -14 -42 -11 -47 3 -5 0 -9 -7 -9 -6 0 -9 -8 -6 -20 3
-11 1 -20 -3 -20 -9 0 -24 -51 -24 -85 -1 -11 -4 -22 -7 -25 -6 -4 -17 -89
-23 -165 -1 -11 -5 -26 -9 -32 -5 -8 -3 -13 4 -13 8 0 8 -4 2 -12 -15 -20 -15
-349 0 -367 8 -10 8 -13 1 -8 -9 5 -12 -39 -12 -163 0 -128 2 -169 11 -164 8
5 8 2 0 -7 -7 -7 -13 -28 -13 -47 0 -24 4 -31 13 -26 10 6 10 4 0 -7 -7 -7
-13 -28 -13 -47 0 -24 4 -31 13 -26 10 6 10 4 0 -7 -7 -7 -13 -28 -13 -47 0
-24 3 -31 13 -26 9 6 9 5 0 -7 -15 -19 -15 -119 0 -138 9 -11 9 -13 0 -8 -9 6
-11 -15 -10 -83 1 -49 1 -90 0 -90 -1 0 -14 5 -30 11 -15 6 -36 13 -45 15 -10
2 -28 7 -40 10 -55 13 -195 16 -266 4 -78 -12 -177 -51 -232 -90 -17 -12 -44
-41 -60 -65 -121 -175 101 -365 420 -360 111 2 182 17 265 56 67 33 99 58 135
109 22 31 25 47 29 144 2 82 0 107 -9 101 -8 -5 -7 0 2 14 11 18 11 23 -2 31
-11 7 -11 10 -2 10 17 0 15 221 -2 232 -8 5 -7 8 2 8 9 0 12 48 12 208 0 153
-3 212 -12 221 -10 11 -10 13 0 7 9 -5 12 8 12 53 0 38 -4 61 -12 64 -10 4
-10 6 0 6 9 1 12 31 12 116 0 85 -3 115 -12 115 -10 0 -10 2 -1 8 8 5 12 60
14 170 2 89 6 162 9 162 6 0 11 46 14 117 1 11 5 19 10 15 5 -3 7 2 3 10 -3 9
-3 19 1 22 3 4 7 13 8 20 1 7 5 24 9 36 5 15 2 26 -6 32 -11 8 -10 9 4 4 9 -3
18 -1 18 4 4 28 37 100 55 117 14 14 18 29 14 48 -1 6 1 7 5 3 9 -8 35 16 35
32 0 6 4 9 8 6 5 -3 16 6 26 20 11 13 25 24 32 24 8 0 23 9 34 20 11 11 23 21
28 21 4 1 12 3 17 4 6 2 23 6 38 9 15 4 26 10 23 14 -2 4 13 7 35 6 27 0 43 4
49 15 6 10 10 11 10 4 0 -8 14 -13 36 -13 19 0 33 4 30 8 -3 5 1 9 9 9 8 0 12
-4 9 -9 -3 -4 5 -8 18 -7 48 1 140 -15 161 -28 6 -4 17 -8 22 -9 6 0 16 -2 23
-2 7 -1 10 -7 6 -14 -5 -7 -2 -9 9 -5 9 3 18 0 21 -9 3 -8 10 -14 16 -14 5 0
24 -15 41 -32 17 -18 36 -32 41 -30 5 1 7 -2 4 -7 -4 -5 1 -17 10 -25 8 -9 12
-16 7 -16 -4 0 -3 -4 3 -8 25 -16 94 -203 94 -254 0 -15 3 -28 8 -28 4 0 7
-15 8 -33 1 -17 5 -65 9 -105 4 -40 8 -191 9 -335 1 -145 5 -268 9 -274 4 -7
4 -14 -1 -17 -11 -6 -9 -77 3 -95 5 -9 4 -12 -1 -8 -12 7 -11 -134 1 -153 5
-8 4 -11 -1 -7 -11 6 -12 -182 -1 -199 3 -6 3 -14 -1 -18 -4 -4 -7 -58 -7
-119 0 -62 -3 -113 -8 -115 -4 -1 -33 5 -65 15 -73 22 -284 25 -357 4 -176
-49 -284 -155 -269 -263 3 -18 10 -44 17 -58 14 -28 80 -100 92 -100 5 0 16
-6 24 -13 18 -16 94 -47 130 -54 14 -2 29 -6 33 -9 5 -3 55 -8 111 -10 212 -7
390 67 452 187 24 46 28 236 6 262 -9 10 -11 18 -6 17 22 -5 27 1 15 15 -7 8
-8 15 -4 15 5 0 9 18 9 40 0 22 -3 40 -8 40 -4 0 -5 6 -1 12 11 18 12 48 2 48
-5 0 -6 5 -2 12 10 16 11 68 1 68 -5 0 -5 5 -1 12 12 20 14 58 2 58 -7 0 -7 4
1 13 8 10 7 17 -1 25 -7 7 -8 12 -3 12 6 0 10 25 10 55 0 30 -4 55 -9 55 -5 0
-4 6 3 13 8 10 7 17 -1 25 -7 7 -8 12 -3 12 11 0 12 151 1 168 -4 7 -2 12 6
12 10 0 10 2 -1 9 -9 6 -10 10 -2 16 9 5 9 10 0 21 -9 11 -8 14 2 14 8 0 5 6
-7 15 -10 8 -14 15 -9 14 22 -3 27 2 15 16 -7 8 -8 15 -4 15 5 0 9 18 9 40 0
22 -3 40 -8 40 -4 0 -5 6 -1 12 11 18 12 48 2 48 -5 0 -6 5 -2 12 4 7 8 24 8
38 0 14 -4 31 -8 38 -4 7 -4 12 1 12 4 0 9 51 10 113 2 96 9 212 13 212 1 0 3
11 5 25 7 50 14 80 21 91 5 8 3 9 -7 4 -12 -8 -12 -6 0 8 7 9 10 17 6 17 -4 0
-2 7 5 15 7 8 10 15 6 15 -4 0 0 14 9 30 9 17 13 30 10 30 -2 0 4 16 15 35 11
20 20 42 20 50 0 8 3 15 8 15 4 0 13 9 20 21 11 17 11 20 0 14 -7 -4 -2 2 11
13 15 12 21 24 16 32 -5 8 -4 11 3 6 6 -3 26 8 46 26 51 48 63 57 70 51 3 -4
6 -1 6 5 0 7 7 12 16 12 9 0 12 5 8 12 -4 6 -3 8 3 5 9 -6 43 2 93 20 22 9 30
10 83 11 36 2 46 5 41 15 -6 9 -5 9 7 1 12 -10 58 -16 124 -15 10 0 25 -5 32
-11 7 -6 13 -8 13 -5 0 12 97 -30 135 -58 39 -29 110 -98 107 -102 -6 -10 0
-23 8 -18 6 3 10 -3 10 -14 0 -12 5 -21 10 -21 6 0 9 -3 9 -7 -4 -22 2 -33 14
-27 6 4 9 4 5 0 -3 -4 2 -32 12 -62 11 -30 16 -54 13 -54 -3 0 0 -7 7 -15 6
-8 9 -18 6 -23 -3 -6 1 -15 9 -22 10 -8 12 -17 6 -28 -5 -10 -5 -26 1 -41 5
-15 9 -27 9 -28 -1 -2 -1 -4 0 -5 0 -2 1 -23 2 -48 1 -25 6 -49 12 -53 7 -6 6
-10 -3 -14 -6 -2 -9 -9 -6 -15 4 -6 7 -88 8 -182 1 -94 6 -177 10 -185 6 -8 5
-12 0 -8 -5 3 -9 -101 -9 -253 0 -151 4 -256 9 -252 5 3 6 -1 1 -8 -13 -21
-14 -200 -1 -200 7 0 8 -3 1 -8 -6 -4 -10 -45 -10 -92 0 -70 -3 -84 -15 -81
-8 2 -37 11 -65 19 -69 20 -255 24 -332 7 -88 -19 -186 -70 -232 -120 -94
-102 -70 -220 63 -309 75 -50 173 -77 301 -81 131 -4 204 11 324 68 34 17 97
81 117 119 18 34 27 188 11 188 -5 0 -5 5 -2 10 11 18 14 80 4 86 -6 3 -6 12
0 21 5 9 5 28 1 43 -4 15 -5 32 -1 38 4 6 6 31 5 54 -3 69 -5 126 -4 176 2 87
-1 166 -4 170 -3 2 -1 13 5 23 7 13 6 19 -1 19 -6 0 -8 5 -3 13 11 17 13 37 3
37 -8 0 -6 36 5 63 4 9 3 17 -2 17 -5 0 -10 7 -10 15 0 8 3 15 7 15 8 0 5 68
-3 76 -3 4 -1 16 4 27 6 11 7 22 3 26 -12 8 -16 31 -6 31 9 0 8 67 -1 76 -3 4
-1 16 4 27 6 11 7 22 3 26 -13 9 -16 31 -5 31 10 0 9 19 -2 36 -3 6 -3 14 0
18 11 10 11 49 1 69 -6 12 -5 17 4 17 8 0 9 3 3 8 -6 4 -10 26 -10 49 1 23 -2
68 -7 100 -4 32 -9 69 -11 83 -6 51 -31 160 -36 160 -3 0 -7 10 -7 23 -1 13
-11 42 -22 65 -11 23 -16 39 -10 36 5 -3 4 3 -4 15 -7 12 -16 21 -21 21 -4 0
-6 4 -3 9 9 13 -4 42 -15 35 -5 -3 -8 -2 -7 3 4 13 -24 83 -34 83 -4 0 -8 6
-8 13 0 7 -9 23 -20 35 -11 12 -20 26 -20 32 0 5 -4 10 -10 10 -5 0 -10 8 -10
18 0 14 -2 15 -10 2 -8 -13 -10 -12 -10 4 0 40 -198 193 -263 203 -11 2 -26 8
-32 13 -7 6 -16 5 -25 -3 -10 -9 -11 -9 -6 1 4 6 4 13 -1 13 -4 1 -19 3 -33 6
-54 8 -181 10 -185 2 -3 -4 -14 -6 -25 -4 -11 2 -20 1 -20 -3 0 -4 -8 -8 -17
-9 -32 -2 -51 -9 -69 -23 -16 -13 -17 -13 -9 0 6 11 3 10 -12 -2 -11 -10 -23
-18 -27 -18 -19 0 -125 -86 -121 -98 3 -7 1 -11 -3 -8 -15 9 -64 -45 -59 -66
4 -15 3 -17 -8 -8 -16 13 -30 -3 -19 -22 4 -7 3 -10 -1 -5 -13 11 -107 -151
-109 -188 -1 -5 -7 -16 -14 -24 -7 -7 -11 -20 -8 -27 3 -7 1 -16 -4 -19 -9 -6
-14 8 -11 28 0 4 -3 7 -7 7 -5 0 -15 18 -22 40 -7 22 -17 40 -22 40 -4 0 -7 4
-6 8 4 12 -34 85 -54 103 -10 9 -15 19 -11 23 3 3 1 6 -5 6 -7 0 -12 7 -12 16
0 10 -6 14 -14 11 -10 -4 -13 -1 -10 8 7 16 -127 149 -167 165 -16 7 -29 17
-29 22 0 5 -4 6 -10 3 -5 -3 -10 -1 -10 5 0 6 -4 8 -10 5 -5 -3 -10 -1 -10 6
0 7 -3 9 -7 6 -3 -4 -12 -2 -19 3 -6 6 -20 13 -30 15 -11 2 -32 8 -49 13 -16
5 -38 8 -47 6 -10 -1 -18 1 -18 6 0 10 -20 8 -39 -4 -9 -6 -12 -5 -8 1 6 10
-109 13 -119 4z m76 -41 c0 -5 -5 -10 -11 -10 -5 0 -7 5 -4 10 3 6 8 10 11 10
2 0 4 -4 4 -10z m320 -160 c0 -5 -5 -10 -11 -10 -5 0 -7 5 -4 10 3 6 8 10 11
10 2 0 4 -4 4 -10z m553 -35 c-3 -9 -8 -14 -10 -11 -3 3 -2 9 2 15 9 16 15 13
8 -4z m685 -10 c-3 -3 -9 2 -12 12 -6 14 -5 15 5 6 7 -7 10 -15 7 -18z m-387
-8 c-10 -9 -11 -8 -5 6 3 10 9 15 12 12 3 -3 0 -11 -7 -18z m343 7 c3 -8 2
-12 -4 -9 -6 3 -10 10 -10 16 0 14 7 11 14 -7z m-474 -34 c0 -5 -2 -10 -4 -10
-3 0 -8 5 -11 10 -3 6 -1 10 4 10 6 0 11 -4 11 -10z m-80 -74 c0 -3 -4 -8 -10
-11 -5 -3 -10 -1 -10 4 0 6 5 11 10 11 6 0 10 -2 10 -4z m-444 -21 c-1 -8 -5
-17 -8 -21 -5 -4 -4 16 1 34 3 9 9 -1 7 -13z m78 -223 c3 -5 -1 -9 -9 -9 -8 0
-12 4 -9 9 3 4 7 8 9 8 2 0 6 -4 9 -8z m206 -2 c0 -5 -2 -10 -4 -10 -3 0 -8 5
-11 10 -3 6 -1 10 4 10 6 0 11 -4 11 -10z m-1360 -160 c0 -5 -2 -10 -4 -10 -3
0 -8 5 -11 10 -3 6 -1 10 4 10 6 0 11 -4 11 -10z m1315 0 c3 -5 1 -10 -4 -10
-6 0 -11 5 -11 10 0 6 2 10 4 10 3 0 8 -4 11 -10z m-1395 -240 c0 -5 -2 -10
-4 -10 -3 0 -8 5 -11 10 -3 6 -1 10 4 10 6 0 11 -4 11 -10z m2515 -199 c3 -5
2 -12 -3 -15 -5 -3 -9 1 -9 9 0 17 3 19 12 6z m-1200 -10 c3 -5 2 -12 -3 -15
-5 -3 -9 1 -9 9 0 17 3 19 12 6z m-35 -191 c0 -5 -2 -10 -4 -10 -3 0 -8 5 -11
10 -3 6 -1 10 4 10 6 0 11 -4 11 -10z m1233 -15 c-3 -9 -8 -14 -10 -11 -3 3
-2 9 2 15 9 16 15 13 8 -4z m-1233 -65 c0 -5 -2 -10 -4 -10 -3 0 -8 5 -11 10
-3 6 -1 10 4 10 6 0 11 -4 11 -10z m45 -40 c-3 -5 -12 -10 -18 -10 -7 0 -6 4
3 10 19 12 23 12 15 0z m-12 -155 c-3 -9 -8 -14 -10 -11 -3 3 -2 9 2 15 9 16
15 13 8 -4z m1242 -45 c3 -5 1 -10 -4 -10 -6 0 -11 5 -11 10 0 6 2 10 4 10 3
0 8 -4 11 -10z m5 -80 c0 -5 -2 -10 -4 -10 -3 0 -8 5 -11 10 -3 6 -1 10 4 10
6 0 11 -4 11 -10z m75 -39 c3 -5 2 -12 -3 -15 -5 -3 -9 1 -9 9 0 17 3 19 12 6z
m-75 -35 c0 -3 -4 -8 -10 -11 -5 -3 -10 -1 -10 4 0 6 5 11 10 11 6 0 10 -2 10
-4z m-1280 -86 c0 -5 -2 -10 -4 -10 -3 0 -8 5 -11 10 -3 6 -1 10 4 10 6 0 11
-4 11 -10z m1355 -119 c3 -5 2 -12 -3 -15 -5 -3 -9 1 -9 9 0 17 3 19 12 6z
m-2642 -56 c-3 -9 -8 -14 -10 -11 -3 3 -2 9 2 15 9 16 15 13 8 -4z m44 -10 c0
-8 -4 -12 -9 -9 -5 3 -6 10 -3 15 9 13 12 11 12 -6z"/>
<path d="M6195 6940 c-50 -19 -63 -67 -36 -123 21 -43 21 -50 20 -1177 -1
-1110 -2 -1136 -21 -1167 -35 -59 2 -133 66 -133 75 1 109 89 56 145 -20 21
-20 30 -20 1157 0 1130 0 1135 21 1159 l20 23 657 -1 c572 -1 752 -5 821 -18
9 -1 43 -6 76 -9 95 -11 267 -56 298 -78 15 -11 27 -16 27 -11 0 10 158 -155
185 -194 56 -79 83 -176 90 -321 3 -65 -1 -91 -26 -167 -17 -49 -31 -95 -32
-102 -21 -98 -293 -288 -457 -318 -14 -3 -35 -7 -47 -9 -84 -17 -112 -17 -137
-1 -38 25 -91 13 -111 -25 -22 -42 -18 -77 10 -106 20 -20 34 -25 68 -23 54 3
74 -6 171 -76 83 -59 136 -109 201 -191 22 -27 43 -50 48 -52 4 -2 7 -8 7 -13
0 -5 7 -17 15 -26 8 -10 53 -70 99 -133 47 -63 89 -120 93 -125 4 -6 21 -28
38 -50 16 -22 35 -47 42 -55 135 -169 167 -216 168 -247 5 -93 87 -132 143
-68 48 56 11 134 -69 144 -10 2 -188 233 -436 567 -135 182 -267 311 -378 368
-34 18 -33 18 84 41 103 20 187 57 299 132 101 68 182 144 205 193 17 35 63
164 75 210 4 14 7 59 7 100 -1 175 -29 287 -98 392 -50 74 -176 200 -233 232
-88 49 -252 87 -489 112 -33 4 -365 7 -737 8 -653 1 -677 2 -698 21 -24 22
-56 28 -85 15z"/>
<path d="M6541 6651 c-68 -72 6 -176 94 -131 33 17 71 18 508 20 260 0 488 1
507 2 86 2 194 -25 264 -66 90 -53 157 -176 152 -276 -4 -53 -33 -150 -47
-150 -5 0 -9 -6 -9 -13 0 -17 -75 -88 -126 -120 -103 -64 -226 -76 -931 -91
-266 -6 -274 -6 -301 14 -37 27 -60 31 -94 14 -37 -19 -53 -76 -32 -115 27
-53 75 -63 121 -25 26 22 38 24 143 26 264 4 490 10 570 15 47 2 126 7 175 10
129 7 228 16 235 20 4 2 20 6 36 9 87 16 274 158 290 222 3 13 10 24 15 24 5
0 8 3 7 8 -1 4 6 31 15 60 30 98 7 237 -56 326 -35 50 -96 102 -154 131 -110
53 -151 57 -721 56 l-524 0 -21 24 c-12 14 -37 28 -54 31 -28 5 -37 2 -62 -25z"/>
<path d="M6561 5563 c-43 -21 -57 -74 -33 -123 16 -32 18 -73 17 -491 0 -356
-3 -459 -13 -471 -42 -51 -5 -138 59 -138 44 0 66 15 79 55 13 40 7 68 -22 95
-21 19 -21 27 -20 452 0 238 1 440 1 448 1 8 14 29 29 45 l27 31 300 -4 c291
-3 302 -4 352 -27 76 -34 131 -75 215 -157 90 -89 126 -133 253 -313 83 -118
239 -331 282 -385 7 -8 32 -40 56 -70 32 -40 44 -64 44 -88 -1 -73 85 -109
138 -57 49 50 15 144 -52 145 -15 0 -40 21 -74 62 -57 69 -220 287 -294 393
-181 261 -267 361 -395 459 -76 58 -101 73 -162 97 -49 19 -76 21 -376 23
-199 2 -326 7 -330 13 -12 18 -50 21 -81 6z"/>
</g>
</svg>
